<svg width="512" height="512" viewBox="0 0 512 512" fill="none" xmlns="http://www.w3.org/2000/svg">
  <!-- Background circle with subtle gradient -->
  <defs>
    <linearGradient id="bgGradient" x1="0%" y1="0%" x2="100%" y2="100%">
      <stop offset="0%" style="stop-color:#F9F0EE;stop-opacity:1" />
      <stop offset="100%" style="stop-color:#F3E1DD;stop-opacity:1" />
    </linearGradient>
    <filter id="shadow" x="-20%" y="-20%" width="140%" height="140%">
      <feDropShadow dx="0" dy="4" stdDeviation="8" flood-color="#B85C43" flood-opacity="0.15"/>
    </filter>
  </defs>
  
  <!-- Background -->
  <circle cx="256" cy="256" r="240" fill="url(#bgGradient)" filter="url(#shadow)"/>
  
  <!-- Utensils icon (fork and knife) scaled and centered -->
  <g transform="translate(256, 256) scale(8, 8) translate(-12, -12)" fill="#B85C43">
    <!-- Fork -->
    <path d="m3 2 1.5 6.5a.5.5 0 0 0 .5.5.5.5 0 0 0 .5-.5L7 2"/>
    <path d="m8 2 1.5 6.5a.5.5 0 0 0 .5.5.5.5 0 0 0 .5-.5L12 2"/>
    <path d="M2 2v6.5C2 10.43 3.57 12 5.5 12S9 10.43 9 8.5V2"/>
    <!-- Knife -->
    <path d="M15.5 7H22l-3.5-4v12l3.5-4h-6.5"/>
    <path d="M15.5 7v8"/>
  </g>
</svg>